<?xml version="1.0" standalone="no"?>
<!DOCTYPE svg PUBLIC "-//W3C//DTD SVG 20010904//EN"
 "http://www.w3.org/TR/2001/REC-SVG-20010904/DTD/svg10.dtd">
<svg version="1.0" xmlns="http://www.w3.org/2000/svg"
 width="229.000000pt" height="221.000000pt" viewBox="0 0 229.000000 221.000000"
 preserveAspectRatio="xMidYMid meet">

<g transform="translate(0.000000,221.000000) scale(0.100000,-0.100000)"
fill="#000000" stroke="none">
<path d="M141 2172 c-133 -508 -142 -547 -127 -593 8 -24 42 -131 76 -236 l61
-193 158 0 158 0 6 -82 c4 -46 7 -113 7 -149 l0 -66 43 -10 c63 -16 359 -93
378 -99 15 -4 43 -66 106 -235 14 -38 28 -68 30 -65 2 2 -3 46 -12 97 -15 94
-76 467 -116 719 -23 148 -25 220 -6 382 l12 106 -299 179 c-165 98 -337 201
-383 230 l-83 51 -9 -36z"/>
<path d="M1764 1987 c-193 -117 -361 -219 -373 -227 l-23 -15 16 -153 c18
-174 26 -108 -129 -1066 -8 -50 -13 -91 -12 -92 1 -2 29 67 61 151 55 144 60
155 90 164 35 11 248 65 349 88 l67 16 0 148 0 149 162 2 161 3 74 230 74 230
-73 292 c-40 161 -77 293 -83 292 -5 0 -168 -96 -361 -212z"/>
<path d="M76 343 c41 -135 75 -248 77 -250 2 -2 125 33 273 78 148 44 330 99
404 121 74 22 136 41 137 42 1 1 -73 59 -165 129 l-168 127 -316 0 -315 0 73
-247z"/>
<path d="M1505 482 c-77 -59 -152 -116 -167 -128 l-26 -20 392 -118 c216 -65
400 -118 410 -119 18 -2 46 81 145 426 l19 67 -316 0 -317 -1 -140 -107z"/>
<path d="M1012 370 l-32 -39 16 -61 17 -60 128 0 128 0 10 38 c24 91 24 88 -9
126 l-32 36 -97 0 -98 0 -31 -40z"/>
</g>
</svg>
